<svg viewBox="0 0 800 200" xmlns="http://www.w3.org/2000/svg">
  <!-- خلفية الشعار -->
  <rect x="0" y="0" width="800" height="200" rx="15" ry="15" fill="#1e1e2e" />
  
  <!-- إطار خارجي مزخرف -->
  <rect x="10" y="10" width="780" height="180" rx="10" ry="10" fill="none" stroke="#8c7ae6" stroke-width="3" />
  
  <!-- تأثيرات حركية في الخلفية -->
  <path d="M 0 100 C 200 50, 600 150, 800 100" stroke="#9b59b6" stroke-width="2" fill="none" opacity="0.3" />
  <path d="M 0 150 C 300 80, 500 120, 800 50" stroke="#3498db" stroke-width="2" fill="none" opacity="0.3" />
  
  <!-- منطقة شعارات المنصات -->
  <rect x="100" y="50" width="600" height="100" rx="50" ry="50" fill="#2c3e50" opacity="0.7" />
  
  <!-- شعار تويتش Twitch -->
  <g transform="translate(200, 100) scale(0.9)">
    <!-- خلفية الأيقونة -->
    <circle cx="0" cy="0" r="40" fill="#9146FF" />
    <!-- شعار تويتش الرسمي -->
    <path d="M -15 -20 L -15 13 L -5 13 L -5 20 L 5 20 L 15 10 L 25 10 L 25 -20 L -15 -20 Z M -10 -15 L 20 -15 L 20 5 L 10 5 L 0 15 L 0 5 L -10 5 L -10 -15 Z" fill="white" />
    <path d="M 0 -5 L 5 -5 L 5 5 L 0 5 L 0 -5 Z M -10 -5 L -5 -5 L -5 5 L -10 5 L -10 -5 Z" fill="#9146FF" />
    <!-- اسم المنصة والحساب -->
    <text x="0" y="45" font-family="Arial, sans-serif" font-size="14" text-anchor="middle" fill="white" font-weight="bold">223V</text>
  </g>
  
  <!-- شعار كيك Kick -->
  <g transform="translate(400, 100) scale(0.9)">
    <!-- خلفية الأيقونة -->
    <circle cx="0" cy="0" r="40" fill="#000000" />
    <!-- شعار كيك البيكسل - مطابق للصورة -->
    <g transform="translate(-25, -10) scale(0.5)">
      <!-- K -->
      <rect x="0" y="0" width="10" height="40" fill="#52C156" />
      <rect x="10" y="15" width="10" height="10" fill="#52C156" />
      <rect x="20" y="0" width="10" height="15" fill="#52C156" />
      <rect x="20" y="25" width="10" height="15" fill="#52C156" />
      <!-- I -->
      <rect x="35" y="0" width="10" height="40" fill="#52C156" />
      <!-- C -->
      <rect x="50" y="0" width="10" height="40" fill="#52C156" />
      <rect x="60" y="0" width="15" height="10" fill="#52C156" />
      <rect x="60" y="30" width="15" height="10" fill="#52C156" />
      <!-- K -->
      <rect x="80" y="0" width="10" height="40" fill="#52C156" />
      <rect x="90" y="15" width="10" height="10" fill="#52C156" />
      <rect x="100" y="0" width="10" height="15" fill="#52C156" />
      <rect x="100" y="25" width="10" height="15" fill="#52C156" />
    </g>
    <!-- اسم المنصة والحساب -->
    <text x="0" y="45" font-family="Arial, sans-serif" font-size="14" text-anchor="middle" fill="white" font-weight="bold">UU66</text>
  </g>
  
  <!-- شعار تيك توك TikTok -->
  <g transform="translate(600, 100) scale(0.9)">
    <!-- خلفية الأيقونة -->
    <circle cx="0" cy="0" r="40" fill="#000000" />
    <!-- شعار تيك توك الرسمي -->
    <path d="M 10 -20 L 10 15 C 10 22 4 28 -3 28 C -10 28 -16 22 -16 15 C -16 8 -10 2 -3 2 L -3 12 C -6 12 -8 14 -8 16 C -8 18 -6 20 -3 20 C 0 20 2 18 2 15 L 2 -20 L 10 -20 Z M 10 -10 C 13 -10 17 -12 20 -15 L 20 -5 C 17 -2 13 0 10 0 L 10 -10 Z" fill="white" />
    <path d="M 16 -18 L 16 -10 C 16 -3 10 3 3 3 C -4 3 -10 -3 -10 -10 L -2 -10 C -2 -6 0 -4 3 -4 C 6 -4 8 -6 8 -10 L 8 -18 L 16 -18 Z" fill="#00f2ea" />
    <path d="M 16 -18 L 8 -18 L 8 -10 C 8 -6 6 -4 3 -4 C 1 -4 0 -4 -1 -5 L -1 -13 C 0 -12 1 -12 3 -12 C 8 -12 12 -14 16 -18 Z" fill="#ff004f" />
    <!-- اسم المنصة والحساب -->
    <text x="0" y="45" font-family="Arial, sans-serif" font-size="14" text-anchor="middle" fill="white" font-weight="bold">.7767</text>
  </g>
  
  <!-- تم إزالة عنوان LIVE STREAM -->
</svg>
