<?xml version="1.0" encoding="UTF-8"?>
<svg viewBox="0 0 800 200" xmlns="http://www.w3.org/2000/svg">
  <defs>
    <!-- Define gradients for each platform -->
    <linearGradient id="twitch-gradient" x1="0%" y1="0%" x2="100%" y2="100%">
      <stop offset="0%" stop-color="#9146FF" />
      <stop offset="100%" stop-color="#6441A5" />
    </linearGradient>
    
    <linearGradient id="kick-gradient" x1="0%" y1="0%" x2="100%" y2="100%">
      <stop offset="0%" stop-color="#53FC18" />
      <stop offset="100%" stop-color="#1E8000" />
    </linearGradient>
    
    <linearGradient id="tiktok-gradient" x1="0%" y1="0%" x2="100%" y2="100%">
      <stop offset="0%" stop-color="#FF004F" />
      <stop offset="50%" stop-color="#00F2EA" />
      <stop offset="100%" stop-color="#000000" />
    </linearGradient>
    
    <!-- Star animation -->
    <filter id="glow" x="-50%" y="-50%" width="200%" height="200%">
      <feGaussianBlur stdDeviation="5" result="blur" />
      <feComposite in="SourceGraphic" in2="blur" operator="over" />
    </filter>
    
    <!-- Define animations -->
    <animate id="twitch-shine" attributeName="opacity" values="1;0.7;1" dur="2s" begin="0s" repeatCount="indefinite" />
    <animate id="kick-shine" attributeName="opacity" values="1;0.7;1" dur="2s" begin="0.5s" repeatCount="indefinite" />
    <animate id="tiktok-shine" attributeName="opacity" values="1;0.7;1" dur="2s" begin="1s" repeatCount="indefinite" />
  </defs>
  
  <!-- Background frame with subtle glow -->
  <rect x="50" y="50" width="700" height="100" rx="15" ry="15" fill="rgba(20, 20, 30, 0.8)" stroke="#333" stroke-width="2" />
  
  <!-- Dividers -->
  <line x1="266" y1="60" x2="266" y2="140" stroke="rgba(255, 255, 255, 0.3)" stroke-width="1" />
  <line x1="532" y1="60" x2="532" y2="140" stroke="rgba(255, 255, 255, 0.3)" stroke-width="1" />
  
  <!-- Platform containers -->
  <g id="twitch-container">
    <!-- Twitch logo -->
    <path d="M120 75 L120 115 L140 115 L140 125 L150 115 L165 115 L180 100 L180 75 Z M175 80 L175 98 L165 108 L150 108 L150 80 Z M160 87 L160 100 L167 100 L167 87 Z M145 87 L145 100 L152 100 L152 87 Z" fill="url(#twitch-gradient)">
      <animate attributeName="opacity" values="1;0.7;1" dur="2s" begin="0s" repeatCount="indefinite" />
    </path>
    <!-- Username placeholder -->
    <text x="150" y="135" font-family="Arial, sans-serif" font-size="16" fill="white" text-anchor="middle">@YourTwitch</text>
    <!-- Glowing star effect -->
    <polygon id="twitch-star" points="195,90 200,75 205,90 220,95 205,100 200,115 195,100 180,95" fill="white" filter="url(#glow)" opacity="0">
      <animate attributeName="opacity" values="0;0.8;0" dur="2s" begin="0s" repeatCount="indefinite" />
    </polygon>
  </g>
  
  <g id="kick-container">
    <!-- Kick logo (stylized K) -->
    <path d="M380 75 L380 115 L390 115 L390 100 L395 100 L405 115 L418 115 L405 96 L418 75 L405 75 L395 90 L390 90 L390 75 Z" fill="url(#kick-gradient)">
      <animate attributeName="opacity" values="1;0.7;1" dur="2s" begin="0.5s" repeatCount="indefinite" />
    </path>
    <!-- Username placeholder -->
    <text x="400" y="135" font-family="Arial, sans-serif" font-size="16" fill="white" text-anchor="middle">@YourKick</text>
    <!-- Glowing star effect -->
    <polygon id="kick-star" points="445,90 450,75 455,90 470,95 455,100 450,115 445,100 430,95" fill="white" filter="url(#glow)" opacity="0">
      <animate attributeName="opacity" values="0;0.8;0" dur="2s" begin="0.5s" repeatCount="indefinite" />
    </polygon>
  </g>
  
  <g id="tiktok-container">
    <!-- TikTok logo stylized -->
    <path d="M650 75 C650 75, 645 75, 640 80 C635 85, 635 90, 635 90 L635 105 C635 105, 635 110, 640 115 C645 120, 650 120, 650 120 L665 120 C665 120, 670 120, 675 115 C680 110, 680 105, 680 105 L680 90 C680 90, 680 85, 675 80 C670 75, 665 75, 665 75 Z" fill="url(#tiktok-gradient)">
      <animate attributeName="opacity" values="1;0.7;1" dur="2s" begin="1s" repeatCount="indefinite" />
    </path>
    <path d="M647 83 L647 106 M657 83 L657 106 M640 90 L680 90 M640 99 L680 99" stroke="white" stroke-width="2" fill="none" />
    <!-- Username placeholder -->
    <text x="655" y="135" font-family="Arial, sans-serif" font-size="16" fill="white" text-anchor="middle">@YourTikTok</text>
    <!-- Glowing star effect -->
    <polygon id="tiktok-star" points="695,90 700,75 705,90 720,95 705,100 700,115 695,100 680,95" fill="white" filter="url(#glow)" opacity="0">
      <animate attributeName="opacity" values="0;0.8;0" dur="2s" begin="1s" repeatCount="indefinite" />
    </polygon>
  </g>
</svg>
